<?xml version="1.0" encoding="utf-8"?>
<!-- Generator: Adobe Illustrator 16.0.0, SVG Export Plug-In . SVG Version: 6.00 Build 0)  -->
<!DOCTYPE svg PUBLIC "-//W3C//DTD SVG 1.1//EN" "http://www.w3.org/Graphics/SVG/1.1/DTD/svg11.dtd">
<svg version="1.1" id="Calque_1" xmlns="http://www.w3.org/2000/svg" xmlns:xlink="http://www.w3.org/1999/xlink" x="0px" y="0px"
	 width="665.884px" height="396.85px" viewBox="0 0 665.884 396.85" enable-background="new 0 0 665.884 396.85"
	 xml:space="preserve">
<g>
	<path fill="#FFFFFF" d="M110.163,234.063l-0.024,24.417l-2.439,1.909c-8.066-12.255-27.829-30.017-52.483-30.017
		c-10.762,0-32.08,5.332-32.08,34.594c0,13.223,13.922,48.357,53.161,48.357c22.219,0,39.458-18.981,43.545-24.146l3.845,1.639
		c-5.068,15.899-25.93,38.904-57.006,38.904c-31.478,0-57.916-25.783-57.916-56.993c0-28.563,23.891-56.234,57.802-56.234
		C73.267,216.513,91.693,217.6,110.163,234.063"/>
	<path fill="#FFFFFF" d="M200.358,216.758c-32.286,0-58.46,25.318-58.46,56.551c0,31.228,26.174,56.549,58.46,56.549
		c32.292,0,58.471-25.321,58.471-56.549C258.829,242.076,232.651,216.758,200.358,216.758 M233.801,308.861
		c-15.092,14.151-42.209,10.064-60.584-9.521c-18.373-19.583-21.035-46.934-5.951-61.091c15.088-14.153,42.215-9.749,60.589,9.833
		C246.23,267.67,248.887,294.702,233.801,308.861"/>
	<path fill="#FFFFFF" d="M287.014,218.846l0.002,109.881l20.29-0.09c0-6.831-0.049-49.747-0.023-51.104c0,0,8.729-1.16,14.865,2.53
		c3.42,2.062,9.88,7.071,13.769,11.773c7.72,8.188,13.551,19.182,21.788,26.694c5.671,4.86,14.26,8.818,20.303,9.868
		c6.042,1.048,16.36,1.232,20.458,0.613c0.43-0.047,0.866-0.158,0.922-0.711c-0.056-0.612-0.379-0.849-1.084-1.029
		c-9.547-2.753-13.894-5.294-18.663-9.595c-15.198-13.721-15.465-26.42-40.368-39.636h15.999c30.503,0,36.18-18.17,36.18-30.281
		c0-25.091-18.944-28.912-40.412-28.912L287.014,218.846z M307.308,270.049l0.029-42.942l37.442-0.021
		c9.788,0,25.856,1.758,25.856,21.347c0,16.995-10.431,21.617-18.98,21.617H307.308z"/>
	<path fill="#FFFFFF" d="M511.025,218.803v61.521c0,22.753-11.563,50.178-47.202,50.178c-16.326,0-38.109-7.489-46.307-32.9
		c-1.586-5.518-2.225-11.56-2.331-17.637c0,0,0.097-60.729,0.097-61.213h20.292v63.818c-0.099,30.544,27.03,32.008,30.458,32.008
		c22.587,0,33.805-13.052,33.805-38.143l-0.002-57.633H511.025z"/>
	<path fill="#FFFFFF" d="M661.027,328.569l0.001-109.567h-19.938c0,0-30.738,63.76-37.417,76.119l-43.624-76.119h-18.326
		l-0.009,109.564l12.873,0.003v-79.702l44.064,79.997l42.309-85.791l-0.057,85.493L661.027,328.569z"/>
	<path fill="#FFFFFF" d="M363.059,137.375c-2.737-2.06-3.62-3.38-6.386-3.38c-3.855,0-6.987,3.13-6.987,6.999
		c0,3.856,1.042,4.604,5.561,7.35c0.162,0.852,0.622,2.414,0.622,3.322c0,8.048-6.528,14.588-14.591,14.588
		c-8.054,0-14.587-6.541-14.587-14.588c0-1.311,0.145-1.57,0.456-2.777c4.254-2.88,6.266-4.039,6.266-7.896
		c0-3.869-3.132-6.999-6.998-6.999c-2.881,0-5.017,2.144-7.209,3.656c-8.057,0-13.753-6.298-13.753-14.357
		c0-8.05,6.526-14.588,14.588-14.588c4.715,0,8.91,2.594,11.583,6.068c2.285,2.45,4.317,6.539,9.906,6.539
		c5.626,0,7.353-4.126,9.647-6.712c2.663-3.579,6.92-5.895,11.717-5.895c8.062,0,14.602,6.539,14.602,14.588
		C377.495,131.352,371.118,137.375,363.059,137.375 M393.27,121.273c0-13.269-10.761-24.027-24.032-24.027
		c-8.295,0-15.61,3.158-19.927,9.554l-0.02-3.745c1.027,0,3.227-2.104,3.227-4.699c0-2.595-0.913-3.725-2.985-4.7l0.053-21.041
		h8.332v-8.031h6.289v8.031h15.468V61.8h-8.119v-5.603h8.119v-10.07h-15.468v6.492h-6.289v-6.492h-6.217v-6.577h6.217v-6.278h6.289
		v6.278h15.468v-9.763h-8.119v-5.6h8.119V13.064h-15.468v7.898h-6.289v-7.898h-8.377v-0.91v0.106c0-4.413-3.582-7.992-7.994-7.992
		c-4.413,0-7.991,3.579-7.991,7.992v-0.106v0.91h-8.485v7.898h-6.284v-7.898h-15.387v11.124h8.033v5.6h-8.033v9.763h15.387v-6.278
		h6.284v6.278h6.134v6.577h-6.134v6.492h-6.284v-6.492h-15.387v10.07h8.033V61.8h-8.033v10.816h15.387v-8.031h6.284v8.031h8.4
		l-0.036,21.041c-1.708,0.821-2.986,2.105-2.986,4.7c0,2.594,2.225,4.699,3.068,4.699l-0.059,3.745
		c-4.316-6.396-11.622-9.554-19.92-9.554c-13.27,0-24.029,10.758-24.029,24.027c0,11.276,8.157,20.933,18.633,23.53
		c-2.288,1.175-3.851,3.56-3.851,6.307c0,3.914,3.179,7.082,7.096,7.082c2.007,0,3.721-0.84,5.014-2.19
		c-0.053,0.613-0.07,1.234-0.07,1.867c0,13.611,11.276,24.649,25.196,24.649c13.919,0,25.194-11.038,25.194-24.649
		c0-0.487-0.011-0.976-0.038-1.456c1.243,1.111,2.9,1.779,4.698,1.779c3.917,0,7.096-3.168,7.096-7.082
		c0-2.852-1.686-5.304-4.111-6.433C384.844,142.083,393.27,132.549,393.27,121.273"/>
	<path fill="#FFFFFF" d="M18.242,375.657h2.665l7.46,17.311h-3.522l-1.614-3.961h-7.505l-1.565,3.961h-3.449L18.242,375.657z
		 M22.156,386.367l-2.666-7.043l-2.713,7.043H22.156z"/>
	<polygon fill="#FFFFFF" points="42.67,375.657 46.217,375.657 50.936,388.737 55.801,375.657 59.125,375.657 52.135,392.968 
		49.468,392.968 	"/>
	<path fill="#FFFFFF" d="M81.136,375.657h2.662l7.46,17.311h-3.521l-1.615-3.961h-7.505l-1.565,3.961h-3.449L81.136,375.657z
		 M85.047,386.367l-2.666-7.043l-2.713,7.043H85.047z"/>
	<polygon fill="#FFFFFF" points="109.084,375.657 113.168,375.657 121.555,388.52 121.602,388.52 121.602,375.657 124.685,375.657 
		124.685,392.968 120.771,392.968 112.214,379.693 112.165,379.693 112.165,392.968 109.084,392.968 	"/>
	<polygon fill="#FFFFFF" points="147.986,378.446 142.683,378.446 142.683,375.657 156.373,375.657 156.373,378.446 
		151.069,378.446 151.069,392.968 147.986,392.968 	"/>
	<rect x="170.119" y="385.704" fill="#FFFFFF" width="6.038" height="2.498"/>
	<path fill="#FFFFFF" d="M210.192,391.699c-2.135,1.139-4.525,1.708-7.164,1.708c-1.338,0-2.566-0.214-3.682-0.646
		c-1.117-0.433-2.077-1.043-2.887-1.836c-0.805-0.789-1.437-1.736-1.895-2.846c-0.454-1.11-0.683-2.345-0.683-3.695
		c0-1.383,0.229-2.642,0.683-3.775c0.458-1.134,1.089-2.099,1.895-2.902c0.81-0.792,1.77-1.407,2.887-1.84
		c1.116-0.435,2.344-0.649,3.682-0.649c1.319,0,2.557,0.159,3.717,0.478c1.157,0.314,2.189,0.882,3.105,1.701l-2.274,2.297
		c-0.555-0.542-1.227-0.956-2.017-1.247c-0.79-0.296-1.627-0.44-2.508-0.44c-0.896,0-1.707,0.159-2.432,0.474
		c-0.726,0.319-1.35,0.757-1.872,1.323c-0.521,0.563-0.926,1.219-1.209,1.965c-0.287,0.753-0.428,1.559-0.428,2.423
		c0,0.932,0.141,1.784,0.428,2.565c0.284,0.785,0.688,1.462,1.209,2.029c0.522,0.575,1.146,1.02,1.872,1.349
		c0.725,0.322,1.536,0.487,2.432,0.487c0.784,0,1.521-0.076,2.215-0.223c0.691-0.144,1.308-0.372,1.844-0.681v-4.084h-3.546v-2.787
		h6.628V391.699z"/>
	<path fill="#FFFFFF" d="M235.329,375.657h2.666l7.46,17.311h-3.523l-1.615-3.961h-7.504l-1.566,3.961h-3.447L235.329,375.657z
		 M239.243,386.367l-2.665-7.043l-2.715,7.043H239.243z"/>
	<path fill="#FFFFFF" d="M263.276,375.657h6.017c0.832,0,1.633,0.077,2.408,0.233c0.775,0.154,1.463,0.42,2.068,0.793
		c0.604,0.378,1.082,0.882,1.444,1.516c0.357,0.638,0.535,1.443,0.535,2.423c0,1.253-0.348,2.305-1.037,3.152
		c-0.697,0.849-1.685,1.364-2.972,1.543l4.595,7.65h-3.716l-4.009-7.334h-2.252v7.334h-3.081V375.657z M268.755,382.993
		c0.441,0,0.881-0.02,1.32-0.063c0.441-0.04,0.845-0.138,1.21-0.292c0.37-0.151,0.666-0.39,0.895-0.707
		c0.226-0.321,0.341-0.763,0.341-1.335c0-0.504-0.108-0.911-0.318-1.22c-0.211-0.313-0.49-0.542-0.83-0.698
		c-0.344-0.154-0.721-0.256-1.137-0.307c-0.418-0.048-0.819-0.074-1.212-0.074h-2.666v4.696H268.755z"/>
	<path fill="#FFFFFF" d="M294.577,375.657h6.821c1.142,0,2.241,0.177,3.3,0.525c1.062,0.351,1.998,0.886,2.813,1.601
		c0.817,0.719,1.468,1.617,1.956,2.703c0.488,1.085,0.734,2.36,0.734,3.822c0,1.487-0.28,2.771-0.844,3.854
		c-0.563,1.087-1.287,1.982-2.175,2.691c-0.887,0.707-1.875,1.237-2.958,1.591c-1.086,0.349-2.15,0.522-3.192,0.522h-6.456V375.657z
		 M299.956,390.181c0.964,0,1.869-0.111,2.725-0.329c0.859-0.223,1.602-0.563,2.239-1.025c0.635-0.465,1.137-1.068,1.504-1.814
		c0.368-0.739,0.55-1.64,0.55-2.703c0-1.038-0.165-1.937-0.491-2.685c-0.324-0.75-0.777-1.358-1.356-1.821
		c-0.578-0.466-1.264-0.807-2.054-1.027c-0.79-0.223-1.658-0.329-2.605-0.329h-2.81v11.734H299.956z"/>
	<polygon fill="#FFFFFF" points="329.03,375.657 340.499,375.657 340.499,378.446 332.112,378.446 332.112,382.7 340.057,382.7 
		340.057,385.487 332.112,385.487 332.112,390.181 340.938,390.181 340.938,392.968 329.03,392.968 	"/>
	<path fill="#FFFFFF" d="M391.48,379.376c-0.325-0.475-0.761-0.821-1.307-1.041c-0.547-0.22-1.121-0.329-1.724-0.329
		c-0.359,0-0.706,0.04-1.039,0.121c-0.334,0.081-0.638,0.215-0.905,0.392c-0.27,0.179-0.485,0.412-0.646,0.696
		c-0.164,0.285-0.246,0.623-0.246,1.016c0,0.585,0.203,1.034,0.611,1.345c0.408,0.307,0.914,0.58,1.516,0.803
		c0.603,0.232,1.265,0.453,1.98,0.663c0.718,0.214,1.378,0.508,1.982,0.876c0.603,0.38,1.108,0.876,1.515,1.495
		c0.408,0.619,0.612,1.441,0.612,2.47c0,0.929-0.17,1.744-0.513,2.435c-0.343,0.689-0.805,1.268-1.384,1.719
		c-0.579,0.462-1.251,0.806-2.018,1.032c-0.766,0.227-1.572,0.34-2.418,0.34c-1.077,0-2.111-0.179-3.106-0.537
		c-0.994-0.357-1.85-0.961-2.567-1.81l2.323-2.25c0.375,0.574,0.868,1.013,1.479,1.335c0.61,0.316,1.26,0.476,1.944,0.476
		c0.359,0,0.716-0.048,1.076-0.146c0.359-0.1,0.684-0.241,0.978-0.439c0.292-0.2,0.529-0.445,0.707-0.746
		c0.179-0.306,0.272-0.65,0.272-1.039c0-0.634-0.206-1.126-0.612-1.471c-0.407-0.342-0.914-0.627-1.515-0.864
		c-0.606-0.238-1.265-0.46-1.982-0.674c-0.718-0.21-1.377-0.501-1.98-0.868c-0.601-0.365-1.108-0.853-1.517-1.472
		c-0.409-0.608-0.61-1.423-0.61-2.45c0-0.896,0.182-1.673,0.549-2.324c0.368-0.653,0.847-1.193,1.443-1.625
		c0.594-0.433,1.274-0.755,2.042-0.969c0.766-0.21,1.548-0.315,2.347-0.315c0.914,0,1.798,0.141,2.652,0.415
		c0.856,0.277,1.627,0.733,2.312,1.369L391.48,379.376z"/>
	<rect x="412.85" y="375.655" fill="#FFFFFF" width="3.083" height="17.313"/>
	<polygon fill="#FFFFFF" points="435.618,375.657 439.702,375.657 448.086,388.52 448.136,388.52 448.136,375.657 451.216,375.657 
		451.216,392.968 447.303,392.968 438.747,379.693 438.699,379.693 438.699,392.968 435.618,392.968 	"/>
	<path fill="#FFFFFF" d="M482.857,379.716c-0.636-0.683-1.25-1.141-1.846-1.366c-0.594-0.231-1.192-0.344-1.795-0.344
		c-0.898,0-1.711,0.155-2.434,0.475c-0.728,0.318-1.35,0.76-1.872,1.322c-0.521,0.56-0.926,1.219-1.209,1.967
		c-0.288,0.751-0.429,1.553-0.429,2.421c0,0.932,0.141,1.784,0.429,2.569c0.283,0.777,0.688,1.455,1.209,2.029
		c0.522,0.571,1.144,1.02,1.872,1.345c0.723,0.322,1.536,0.487,2.434,0.487c0.699,0,1.379-0.167,2.042-0.501
		c0.658-0.332,1.274-0.866,1.844-1.601l2.543,1.808c-0.781,1.079-1.734,1.859-2.859,2.346c-1.127,0.489-2.324,0.734-3.595,0.734
		c-1.338,0-2.563-0.214-3.681-0.646c-1.116-0.433-2.08-1.043-2.884-1.836c-0.81-0.789-1.439-1.736-1.896-2.846
		c-0.458-1.11-0.686-2.339-0.686-3.695c0-1.383,0.228-2.642,0.686-3.779c0.456-1.13,1.086-2.095,1.896-2.895
		c0.804-0.796,1.768-1.414,2.884-1.844c1.118-0.433,2.343-0.649,3.681-0.649c1.174,0,2.262,0.207,3.265,0.624
		c1.002,0.414,1.934,1.122,2.798,2.114L482.857,379.716z"/>
	<polygon fill="#FFFFFF" points="503.617,375.657 515.087,375.657 515.087,378.446 506.698,378.446 506.698,382.7 514.644,382.7 
		514.644,385.487 506.698,385.487 506.698,390.181 515.525,390.181 515.525,392.968 503.617,392.968 	"/>
	<polygon fill="#FFFFFF" points="562.203,379.033 558.949,382.037 557.24,380.008 562.474,375.657 565.139,375.657 565.139,392.968 
		562.203,392.968 	"/>
	<path fill="#FFFFFF" d="M589.811,392.968l4.157-6.402l-0.05-0.056c-0.179,0.103-0.42,0.176-0.72,0.226
		c-0.304,0.048-0.598,0.071-0.894,0.071c-0.766,0-1.468-0.146-2.104-0.439c-0.635-0.293-1.183-0.693-1.648-1.202
		c-0.465-0.502-0.824-1.091-1.077-1.76c-0.253-0.664-0.378-1.375-0.378-2.127c0-0.892,0.151-1.709,0.464-2.441
		c0.31-0.734,0.737-1.356,1.283-1.872c0.546-0.515,1.2-0.908,1.957-1.185c0.758-0.278,1.576-0.415,2.455-0.415
		c0.899,0,1.725,0.134,2.484,0.4c0.758,0.271,1.41,0.658,1.957,1.164c0.543,0.506,0.97,1.122,1.271,1.857s0.451,1.553,0.451,2.47
		c0,0.914-0.15,1.74-0.451,2.481c-0.301,0.742-0.688,1.494-1.161,2.26l-4.427,6.97H589.811z M596.341,381.307
		c0-0.442-0.082-0.852-0.246-1.235c-0.163-0.383-0.39-0.717-0.673-1.004c-0.283-0.285-0.618-0.512-1.003-0.673
		c-0.382-0.162-0.793-0.245-1.232-0.245c-0.442,0-0.854,0.083-1.236,0.245c-0.381,0.161-0.716,0.388-1.003,0.673
		c-0.283,0.287-0.51,0.621-0.673,1.004c-0.162,0.384-0.244,0.793-0.244,1.235c0,0.439,0.082,0.853,0.244,1.233
		c0.163,0.383,0.39,0.719,0.673,1.004c0.287,0.282,0.622,0.509,1.003,0.671c0.382,0.162,0.794,0.244,1.236,0.244
		c0.439,0,0.851-0.082,1.232-0.244c0.385-0.162,0.72-0.389,1.003-0.671c0.283-0.285,0.51-0.621,0.673-1.004
		C596.259,382.159,596.341,381.746,596.341,381.307"/>
	<path fill="#FFFFFF" d="M628.738,378.297h-6.97l-0.073,3.449c0.229-0.082,0.517-0.138,0.869-0.171s0.678-0.049,0.99-0.049
		c0.85,0,1.626,0.134,2.337,0.404c0.708,0.268,1.313,0.656,1.821,1.16c0.504,0.504,0.898,1.108,1.185,1.81
		c0.285,0.701,0.428,1.49,0.428,2.37c0,0.932-0.159,1.766-0.478,2.505c-0.318,0.743-0.756,1.372-1.318,1.889
		c-0.563,0.511-1.229,0.903-1.995,1.185c-0.767,0.273-1.588,0.412-2.469,0.412c-1.389,0-2.565-0.324-3.533-0.975
		c-0.972-0.658-1.661-1.646-2.068-2.984l3.083-0.833c0.196,0.617,0.529,1.109,1.003,1.466c0.473,0.361,1.083,0.54,1.835,0.54
		c0.439,0,0.842-0.073,1.209-0.22c0.368-0.15,0.685-0.356,0.955-0.622c0.267-0.27,0.477-0.586,0.623-0.943
		c0.146-0.36,0.222-0.749,0.222-1.173c0-0.604-0.113-1.117-0.33-1.542c-0.223-0.419-0.521-0.77-0.896-1.039
		c-0.374-0.27-0.805-0.464-1.294-0.59c-0.489-0.119-1.003-0.18-1.54-0.18c-0.639,0-1.269,0.072-1.898,0.219
		c-0.625,0.15-1.2,0.352-1.722,0.614l0.171-9.342h9.854V378.297z"/>
	<path fill="#FFFFFF" d="M659.109,378.297h-6.97l-0.071,3.449c0.225-0.082,0.516-0.138,0.865-0.171
		c0.351-0.033,0.681-0.049,0.991-0.049c0.847,0,1.625,0.134,2.334,0.404c0.708,0.268,1.316,0.656,1.822,1.16
		c0.504,0.504,0.899,1.108,1.188,1.81c0.282,0.701,0.428,1.49,0.428,2.37c0,0.932-0.16,1.766-0.479,2.505
		c-0.32,0.743-0.759,1.372-1.322,1.889c-0.561,0.511-1.226,0.903-1.991,1.185c-0.766,0.273-1.591,0.412-2.472,0.412
		c-1.387,0-2.563-0.324-3.532-0.975c-0.969-0.658-1.659-1.646-2.066-2.984l3.081-0.833c0.197,0.617,0.528,1.109,1.002,1.466
		c0.472,0.361,1.085,0.54,1.837,0.54c0.439,0,0.844-0.073,1.209-0.22c0.366-0.15,0.685-0.356,0.954-0.622
		c0.269-0.27,0.476-0.586,0.618-0.943c0.15-0.36,0.226-0.749,0.226-1.173c0-0.604-0.108-1.117-0.332-1.542
		c-0.218-0.419-0.517-0.77-0.893-1.039c-0.374-0.27-0.807-0.464-1.294-0.59c-0.488-0.119-1.005-0.18-1.541-0.18
		c-0.634,0-1.27,0.072-1.896,0.219c-0.629,0.15-1.202,0.352-1.724,0.614l0.171-9.342h9.855V378.297z"/>
</g>
</svg>
